<?xml version="1.0" encoding="UTF-8" standalone="no"?>
<!-- Created with Inkscape (http://www.inkscape.org/) -->

<svg
   xmlns:dc="http://purl.org/dc/elements/1.1/"
   xmlns:cc="http://creativecommons.org/ns#"
   xmlns:rdf="http://www.w3.org/1999/02/22-rdf-syntax-ns#"
   xmlns:svg="http://www.w3.org/2000/svg"
   xmlns="http://www.w3.org/2000/svg"
   xmlns:sodipodi="http://sodipodi.sourceforge.net/DTD/sodipodi-0.dtd"
   xmlns:inkscape="http://www.inkscape.org/namespaces/inkscape"
   id="svg54987"
   version="1.1"
   inkscape:version="0.92.4 (5da689c313, 2019-01-14)"
   width="105"
   height="25.5"
   xml:space="preserve"
   sodipodi:docname="Logo_DSHS_Koeln.svg"
   inkscape:export-filename="C:\Users\maipa\Desktop\Logo_DSHS_Koeln.png"
   inkscape:export-xdpi="342"
   inkscape:export-ydpi="342"><metadata
     id="metadata54993"><rdf:RDF><cc:Work
         rdf:about=""><dc:format>image/svg+xml</dc:format><dc:type
           rdf:resource="http://purl.org/dc/dcmitype/StillImage" /><dc:title /></cc:Work></rdf:RDF></metadata><defs
     id="defs54991"><inkscape:perspective
       sodipodi:type="inkscape:persp3d"
       inkscape:vp_x="0 : 0.5 : 1"
       inkscape:vp_y="0 : 1000 : 0"
       inkscape:vp_z="1 : 0.5 : 1"
       inkscape:persp3d-origin="0.5 : 0.33333333 : 1"
       id="perspective54995" /><clipPath
       clipPathUnits="userSpaceOnUse"
       id="clipPath55007"><path
         d="m 198.425,552.756 85.04,0 0,42.52 -85.04,0 0,-42.52 z"
         id="path55009" /></clipPath><clipPath
       clipPathUnits="userSpaceOnUse"
       id="clipPath55019"><path
         d="m 90.708,28.665 167.4,0 0,40.5 -167.4,0 0,-40.5 z"
         id="path55021" /></clipPath></defs><sodipodi:namedview
     pagecolor="#ffffff"
     bordercolor="#666666"
     borderopacity="1"
     objecttolerance="10"
     gridtolerance="10"
     guidetolerance="10"
     inkscape:pageopacity="0"
     inkscape:pageshadow="2"
     inkscape:window-width="1920"
     inkscape:window-height="1001"
     id="namedview54989"
     showgrid="false"
     inkscape:zoom="5.3740115"
     inkscape:cx="80.061078"
     inkscape:cy="42.48348"
     inkscape:window-x="-9"
     inkscape:window-y="-9"
     inkscape:window-maximized="1"
     inkscape:current-layer="g55017" /><g
     id="g54997"
     inkscape:groupmode="layer"
     inkscape:label="AufeinenBlick"
     transform="matrix(1.25,0,0,-1.25,0,25.499973)"><g
       id="g55015"
       transform="matrix(0.5,0,0,0.5,-45.312873,-14.224306)"><g
         id="g55017"
         clip-path="url(#clipPath55019)"><g
           id="g55023"
           transform="matrix(0.91235619,0,0,0.91235619,138.02809,41.359527)"><path
             d="m 0,0 h 0.435 c 0.063,0 0.094,0.031 0.094,0.093 v 0.319 c 0,0.062 -0.031,0.094 -0.094,0.094 h -1.679 c -0.093,0 -0.109,-0.016 -0.109,-0.109 V 0.109 C -1.353,0.016 -1.337,0 -1.244,0 h 0.606 v -1.633 c -0.287,-0.124 -0.396,-0.148 -0.606,-0.148 -0.918,0 -1.299,0.685 -1.299,2.325 0,0.933 0.125,1.478 0.412,1.835 0.171,0.218 0.459,0.35 0.763,0.35 0.233,0 0.458,-0.062 0.715,-0.21 V 1.835 c 0,-0.054 0.039,-0.093 0.093,-0.093 h 0.35 c 0.062,0 0.093,0.031 0.093,0.093 v 0.887 c 0,0.077 -0.015,0.116 -0.077,0.155 -0.312,0.226 -0.778,0.373 -1.182,0.373 -1.19,0 -1.859,-1.003 -1.859,-2.799 0,-1.796 0.653,-2.753 1.874,-2.753 0.467,0 0.996,0.125 1.291,0.311 C -0.016,-1.96 0,-1.936 0,-1.874 Z"
             style="fill:#231f20;fill-opacity:1;fill-rule:nonzero;stroke:none"
             id="path55025"
             inkscape:connector-curvature="0" /></g><g
           id="g55027"
           transform="matrix(0.91235619,0,0,0.91235619,142.01597,40.941037)"><path
             d="m 0,0 c 0.07,0 0.086,0.031 0.086,0.14 0,0.497 -0.031,0.785 -0.117,1.034 -0.202,0.591 -0.677,0.933 -1.299,0.933 -0.933,0 -1.539,-0.785 -1.539,-1.983 0,-1.205 0.63,-1.967 1.617,-1.967 0.327,0 0.653,0.078 0.957,0.218 0.21,0.101 0.28,0.155 0.28,0.218 0,0.015 0,0.015 -0.016,0.054 l -0.14,0.303 c -0.016,0.024 -0.039,0.039 -0.054,0.039 -0.024,0 -0.055,-0.008 -0.078,-0.023 -0.342,-0.195 -0.622,-0.28 -0.902,-0.28 -0.63,0 -0.988,0.466 -1.027,1.314 z m -2.232,0.482 c 0.047,0.754 0.343,1.151 0.863,1.151 0.514,0 0.809,-0.412 0.825,-1.151 z"
             style="fill:#231f20;fill-opacity:1;fill-rule:evenodd;stroke:none"
             id="path55029"
             inkscape:connector-curvature="0" /></g><g
           id="g55031"
           transform="matrix(0.91235619,0,0,0.91235619,144.0798,39.798761)"><path
             d="M 0,0 V 2.185 C 0.381,2.628 0.56,2.776 0.739,2.776 0.785,2.776 0.84,2.76 0.972,2.722 0.98,2.714 0.995,2.714 1.003,2.714 c 0.016,0 0.024,0.008 0.039,0.031 L 1.229,3.173 C 1.244,3.204 1.244,3.219 1.244,3.235 1.244,3.289 1.027,3.359 0.855,3.359 0.645,3.359 0.428,3.25 0.233,3.048 0.148,2.963 0.109,2.924 -0.078,2.706 -0.14,3.048 -0.249,3.25 -0.381,3.25 h -0.7 c -0.062,0 -0.093,-0.031 -0.093,-0.093 V 2.861 c 0,-0.062 0.031,-0.093 0.093,-0.093 h 0.412 C -0.599,2.55 -0.583,2.426 -0.583,1.944 V 0 h -0.443 c -0.055,0 -0.086,-0.031 -0.086,-0.093 v -0.296 c 0,-0.062 0.031,-0.093 0.086,-0.093 h 1.524 c 0.062,0 0.093,0.031 0.093,0.093 v 0.296 C 0.591,-0.031 0.56,0 0.498,0 Z"
             style="fill:#231f20;fill-opacity:1;fill-rule:nonzero;stroke:none"
             id="path55033"
             inkscape:connector-curvature="0" /></g><g
           id="g55035"
           transform="matrix(0.91235619,0,0,0.91235619,150.62669,39.798761)"><path
             d="m 0,0 v 2.263 c 0,0.373 -0.039,0.583 -0.132,0.754 -0.125,0.21 -0.389,0.342 -0.7,0.342 -0.366,0 -0.661,-0.116 -1.135,-0.459 -0.125,0.304 -0.374,0.459 -0.747,0.459 -0.365,0 -0.684,-0.132 -1.096,-0.466 C -3.904,3.196 -3.935,3.25 -4.036,3.25 H -4.79 c -0.062,0 -0.093,-0.031 -0.093,-0.093 V 2.861 c 0,-0.062 0.031,-0.093 0.093,-0.093 h 0.428 C -4.308,2.628 -4.3,2.566 -4.3,2.403 V 0 h -0.436 c -0.062,0 -0.093,-0.031 -0.093,-0.093 v -0.296 c 0,-0.062 0.031,-0.093 0.093,-0.093 h 1.462 c 0.063,0 0.094,0.031 0.094,0.093 v 0.296 C -3.18,-0.031 -3.211,0 -3.274,0 h -0.451 v 2.519 c 0.335,0.249 0.537,0.335 0.786,0.335 0.334,0 0.497,-0.195 0.497,-0.576 v -2.667 c 0,-0.078 0.016,-0.093 0.086,-0.093 h 0.933 c 0.062,0 0.093,0.031 0.093,0.093 v 0.296 C -1.33,-0.031 -1.361,0 -1.423,0 h -0.435 v 2.543 c 0.349,0.241 0.536,0.311 0.785,0.311 0.342,0 0.498,-0.179 0.498,-0.568 v -2.675 c 0,-0.078 0.015,-0.093 0.085,-0.093 h 0.925 c 0.063,0 0.094,0.031 0.094,0.093 v 0.296 C 0.529,-0.031 0.498,0 0.435,0 Z"
             style="fill:#231f20;fill-opacity:1;fill-rule:nonzero;stroke:none"
             id="path55037"
             inkscape:connector-curvature="0" /></g><g
           id="g55039"
           transform="matrix(0.91235619,0,0,0.91235619,154.53321,39.798761)"><path
             d="m 0,0 c -0.078,0.233 -0.093,0.365 -0.093,0.778 v 1.469 c 0,0.739 -0.389,1.089 -1.19,1.089 -0.505,0 -1.221,-0.21 -1.221,-0.358 l 0.008,-0.062 0.117,-0.311 c 0.007,-0.023 0.031,-0.039 0.054,-0.039 0.008,0 0.031,0.008 0.055,0.016 0.357,0.163 0.606,0.225 0.894,0.225 0.505,0 0.699,-0.194 0.699,-0.692 V 1.858 C -2.053,1.835 -2.722,1.392 -2.722,0.505 c 0,-0.653 0.389,-1.065 1.011,-1.065 0.428,0 0.77,0.148 1.12,0.49 0.086,-0.303 0.163,-0.412 0.296,-0.412 h 0.66 c 0.063,0 0.094,0.031 0.094,0.093 v 0.296 C 0.459,-0.031 0.428,0 0.365,0 Z M -0.677,0.373 C -1.034,0.062 -1.299,-0.07 -1.571,-0.07 c -0.326,0 -0.552,0.257 -0.552,0.622 0,0.544 0.475,0.817 1.446,0.824 z"
             style="fill:#231f20;fill-opacity:1;fill-rule:evenodd;stroke:none"
             id="path55041"
             inkscape:connector-curvature="0" /></g><g
           id="g55043"
           transform="matrix(0.91235619,0,0,0.91235619,158.7538,39.798761)"><path
             d="m 0,0 v 2.201 c 0,0.451 -0.023,0.591 -0.132,0.785 -0.14,0.241 -0.428,0.373 -0.793,0.373 -0.436,0 -0.77,-0.14 -1.252,-0.529 -0.07,0.311 -0.125,0.42 -0.241,0.42 h -0.786 c -0.062,0 -0.093,-0.031 -0.093,-0.093 V 2.861 c 0,-0.062 0.031,-0.093 0.093,-0.093 h 0.443 c 0.039,-0.163 0.047,-0.249 0.047,-0.49 V 0 h -0.435 c -0.063,0 -0.094,-0.031 -0.094,-0.093 v -0.296 c 0,-0.062 0.031,-0.093 0.094,-0.093 h 1.461 c 0.063,0 0.094,0.031 0.094,0.093 v 0.296 C -1.594,-0.031 -1.625,0 -1.688,0 h -0.435 v 2.364 c 0.397,0.358 0.661,0.49 1.019,0.49 0.365,0 0.521,-0.187 0.521,-0.646 v -2.597 c 0,-0.078 0.015,-0.093 0.085,-0.093 h 0.933 c 0.063,0 0.094,0.031 0.094,0.093 v 0.296 C 0.529,-0.031 0.498,0 0.435,0 Z"
             style="fill:#231f20;fill-opacity:1;fill-rule:nonzero;stroke:none"
             id="path55045"
             inkscape:connector-curvature="0" /></g><g
           id="g55047"
           transform="matrix(0.91235619,0,0,0.91235619,164.37258,43.083329)"><path
             d="m 0,0 c 0,-0.062 0.031,-0.093 0.093,-0.093 h 0.35 c 0.062,0 0.093,0.031 0.093,0.093 v 0.894 c 0,0.078 -0.023,0.117 -0.07,0.148 -0.295,0.187 -0.8,0.319 -1.205,0.319 -0.91,0 -1.547,-0.583 -1.547,-1.4 0,-0.326 0.116,-0.645 0.319,-0.878 0.186,-0.21 0.419,-0.374 0.987,-0.693 0.801,-0.451 0.972,-0.653 0.972,-1.143 0,-0.521 -0.365,-0.863 -0.925,-0.863 -0.28,0 -0.583,0.07 -0.941,0.21 v 0.638 c 0,0.062 -0.031,0.093 -0.093,0.093 h -0.35 c -0.063,0 -0.094,-0.031 -0.094,-0.093 V -3.67 c 0,-0.078 0.016,-0.117 0.055,-0.156 0.194,-0.171 0.933,-0.365 1.392,-0.365 0.98,0 1.648,0.614 1.648,1.516 0,0.381 -0.132,0.723 -0.373,0.996 -0.179,0.209 -0.334,0.311 -1.159,0.777 -0.591,0.327 -0.754,0.529 -0.754,0.933 0,0.482 0.311,0.762 0.84,0.762 0.256,0 0.497,-0.046 0.762,-0.155 z"
             style="fill:#231f20;fill-opacity:1;fill-rule:nonzero;stroke:none"
             id="path55049"
             inkscape:connector-curvature="0" /></g><g
           id="g55051"
           transform="matrix(0.91235619,0,0,0.91235619,166.83886,38.365722)"><path
             d="M 0,0 V 1.322 C 0.35,1.073 0.599,0.98 0.918,0.98 c 0.801,0 1.291,0.777 1.291,2.053 0,0.544 -0.094,1.01 -0.257,1.353 C 1.773,4.743 1.454,4.93 1.011,4.93 c -0.397,0 -0.684,-0.117 -1.12,-0.459 -0.116,0.327 -0.14,0.35 -0.295,0.35 h -0.685 c -0.054,0 -0.085,-0.031 -0.085,-0.093 V 4.432 c 0,-0.062 0.023,-0.093 0.085,-0.093 h 0.428 C -0.599,4.183 -0.583,4.051 -0.583,3.74 V 0 h -0.451 c -0.062,0 -0.093,-0.031 -0.093,-0.093 v -0.296 c 0,-0.062 0.031,-0.093 0.093,-0.093 H 0.49 c 0.062,0 0.093,0.031 0.093,0.093 v 0.296 C 0.583,-0.031 0.552,0 0.49,0 Z m 0,4.028 c 0.42,0.288 0.638,0.381 0.902,0.381 0.249,0 0.467,-0.163 0.56,-0.404 C 1.54,3.779 1.579,3.476 1.579,3.009 1.579,1.928 1.376,1.508 0.848,1.508 0.583,1.508 0.373,1.586 0,1.835 Z"
             style="fill:#231f20;fill-opacity:1;fill-rule:evenodd;stroke:none"
             id="path55053"
             inkscape:connector-curvature="0" /></g><g
           id="g55055"
           transform="matrix(0.91235619,0,0,0.91235619,171.33703,42.863646)"><path
             d="m 0,0 c -1.003,0 -1.594,-0.731 -1.594,-1.991 0,-1.236 0.552,-1.959 1.501,-1.959 1.003,0 1.594,0.738 1.594,1.998 C 1.501,-0.731 0.941,0 0,0 m -0.055,-0.49 c 0.607,0 0.926,-0.498 0.926,-1.454 0,-0.498 -0.093,-0.941 -0.249,-1.19 -0.124,-0.202 -0.381,-0.326 -0.661,-0.326 -0.288,0 -0.552,0.132 -0.684,0.342 -0.148,0.256 -0.241,0.707 -0.241,1.205 0,0.925 0.319,1.423 0.909,1.423"
             style="fill:#231f20;fill-opacity:1;fill-rule:evenodd;stroke:none"
             id="path55057"
             inkscape:connector-curvature="0" /></g><g
           id="g55059"
           transform="matrix(0.91235619,0,0,0.91235619,174.6859,39.798761)"><path
             d="M 0,0 V 2.185 C 0.381,2.628 0.56,2.776 0.739,2.776 0.785,2.776 0.84,2.76 0.972,2.722 0.98,2.714 0.995,2.714 1.003,2.714 c 0.016,0 0.023,0.008 0.039,0.031 L 1.229,3.173 C 1.244,3.204 1.244,3.219 1.244,3.235 1.244,3.289 1.026,3.359 0.855,3.359 0.645,3.359 0.428,3.25 0.233,3.048 0.148,2.963 0.109,2.924 -0.078,2.706 -0.14,3.048 -0.249,3.25 -0.381,3.25 h -0.7 c -0.062,0 -0.093,-0.031 -0.093,-0.093 V 2.861 c 0,-0.062 0.031,-0.093 0.093,-0.093 h 0.412 C -0.599,2.55 -0.583,2.426 -0.583,1.944 V 0 h -0.443 c -0.055,0 -0.086,-0.031 -0.086,-0.093 v -0.296 c 0,-0.062 0.031,-0.093 0.086,-0.093 h 1.524 c 0.062,0 0.093,0.031 0.093,0.093 v 0.296 C 0.591,-0.031 0.56,0 0.498,0 Z"
             style="fill:#231f20;fill-opacity:1;fill-rule:nonzero;stroke:none"
             id="path55061"
             inkscape:connector-curvature="0" /></g><g
           id="g55063"
           transform="matrix(0.91235619,0,0,0.91235619,177.27394,42.764286)"><path
             d="M 0,0 H -0.552 C -0.63,0 -0.645,-0.016 -0.645,-0.093 v -0.304 c 0,-0.077 0.007,-0.085 0.093,-0.085 H 0 v -2.193 c 0,-0.404 0.023,-0.544 0.101,-0.7 0.14,-0.272 0.459,-0.435 0.848,-0.435 0.396,0 1.011,0.186 1.011,0.311 0,0.008 0,0.008 -0.016,0.039 L 1.859,-3.141 C 1.851,-3.11 1.827,-3.095 1.804,-3.095 1.789,-3.095 1.765,-3.103 1.75,-3.11 1.408,-3.258 1.244,-3.305 1.05,-3.305 c -0.179,0 -0.311,0.055 -0.389,0.156 -0.07,0.093 -0.078,0.163 -0.078,0.474 v 2.193 h 1.034 c 0.063,0 0.094,0.023 0.109,0.078 l 0.086,0.303 C 1.82,-0.07 1.82,-0.07 1.82,-0.054 1.82,-0.016 1.796,0 1.75,0 H 0.583 v 1.197 c 0,0.078 -0.008,0.094 -0.054,0.094 -0.008,0 -0.008,0 -0.047,-0.016 L 0.078,1.166 C 0.031,1.151 0,1.112 0,1.065 Z"
             style="fill:#231f20;fill-opacity:1;fill-rule:nonzero;stroke:none"
             id="path55065"
             inkscape:connector-curvature="0" /></g><g
           id="g55067"
           transform="matrix(0.91235619,0,0,0.91235619,182.79122,43.764587)"><path
             d="M 0,0 H 0.498 C 0.56,0 0.591,0.031 0.591,0.093 v 0.319 c 0,0.062 -0.031,0.093 -0.093,0.093 h -1.625 c -0.063,0 -0.094,-0.031 -0.094,-0.093 V 0.093 C -1.221,0.031 -1.19,0 -1.127,0 h 0.489 v -3.398 c 0,-1.034 0.521,-1.54 1.602,-1.54 0.599,0 0.988,0.133 1.307,0.443 0.272,0.265 0.389,0.599 0.389,1.097 V 0 H 3.157 C 3.219,0 3.25,0.031 3.25,0.093 v 0.319 c 0,0.062 -0.031,0.093 -0.093,0.093 H 1.555 C 1.493,0.505 1.462,0.474 1.462,0.412 V 0.093 C 1.462,0.031 1.493,0 1.555,0 h 0.49 V -3.375 C 2.045,-4.09 1.711,-4.417 0.996,-4.417 0.28,-4.417 0,-4.129 0,-3.375 Z"
             style="fill:#231f20;fill-opacity:1;fill-rule:nonzero;stroke:none"
             id="path55069"
             inkscape:connector-curvature="0" /></g><g
           id="g55071"
           transform="matrix(0.91235619,0,0,0.91235619,189.53092,39.798761)"><path
             d="m 0,0 v 2.201 c 0,0.451 -0.023,0.591 -0.132,0.785 -0.14,0.241 -0.428,0.373 -0.793,0.373 -0.436,0 -0.77,-0.14 -1.252,-0.529 -0.07,0.311 -0.125,0.42 -0.241,0.42 h -0.786 c -0.062,0 -0.093,-0.031 -0.093,-0.093 V 2.861 c 0,-0.062 0.031,-0.093 0.093,-0.093 h 0.443 c 0.039,-0.163 0.047,-0.249 0.047,-0.49 V 0 h -0.435 c -0.063,0 -0.094,-0.031 -0.094,-0.093 v -0.296 c 0,-0.062 0.031,-0.093 0.094,-0.093 h 1.461 c 0.063,0 0.094,0.031 0.094,0.093 v 0.296 C -1.594,-0.031 -1.625,0 -1.688,0 h -0.435 v 2.364 c 0.397,0.358 0.661,0.49 1.019,0.49 0.365,0 0.521,-0.187 0.521,-0.646 v -2.597 c 0,-0.078 0.015,-0.093 0.085,-0.093 h 0.933 c 0.063,0 0.094,0.031 0.094,0.093 v 0.296 C 0.529,-0.031 0.498,0 0.435,0 Z"
             style="fill:#231f20;fill-opacity:1;fill-rule:nonzero;stroke:none"
             id="path55073"
             inkscape:connector-curvature="0" /></g><g
           id="g55075"
           transform="matrix(0.91235619,0,0,0.91235619,192.00068,39.798761)"><path
             d="M 0,0 V 3.157 C 0,3.235 -0.016,3.25 -0.086,3.25 h -1.119 c -0.07,0 -0.086,-0.015 -0.086,-0.093 V 2.854 c 0,-0.07 0.016,-0.086 0.086,-0.086 h 0.622 V 0 h -0.56 c -0.062,0 -0.094,-0.031 -0.094,-0.093 v -0.296 c 0,-0.062 0.032,-0.093 0.094,-0.093 h 1.711 c 0.062,0 0.093,0.031 0.093,0.093 v 0.296 C 0.661,-0.031 0.63,0 0.568,0 Z m -0.319,5.085 c -0.272,0 -0.482,-0.21 -0.482,-0.466 0,-0.265 0.21,-0.474 0.474,-0.474 0.257,0 0.467,0.209 0.467,0.466 0,0.257 -0.21,0.474 -0.459,0.474"
             style="fill:#231f20;fill-opacity:1;fill-rule:evenodd;stroke:none"
             id="path55077"
             inkscape:connector-curvature="0" /></g><g
           id="g55079"
           transform="matrix(0.91235619,0,0,0.91235619,195.53892,42.352802)"><path
             d="m 0,0 -0.754,-2.092 c -0.07,-0.194 -0.101,-0.28 -0.156,-0.482 l -0.039,0.14 -0.046,0.187 L -1.05,-2.084 -1.734,0 h 0.428 c 0.062,0 0.093,0.031 0.093,0.093 v 0.265 c 0,0.062 -0.031,0.093 -0.093,0.093 H -2.62 c -0.063,0 -0.094,-0.031 -0.094,-0.093 V 0.062 c 0,-0.062 0.031,-0.093 0.094,-0.093 h 0.256 l 1.19,-3.235 c 0.023,-0.062 0.031,-0.07 0.093,-0.07 h 0.303 c 0.063,0 0.07,0.008 0.102,0.07 l 1.282,3.235 h 0.226 c 0.062,0 0.093,0.031 0.093,0.093 v 0.296 c 0,0.062 -0.031,0.093 -0.093,0.093 h -1.291 c -0.062,0 -0.093,-0.031 -0.093,-0.093 V 0.093 C -0.552,0.031 -0.521,0 -0.459,0 Z"
             style="fill:#231f20;fill-opacity:1;fill-rule:evenodd;stroke:none"
             id="path55081"
             inkscape:connector-curvature="0" /></g><g
           id="g55083"
           transform="matrix(0.91235619,0,0,0.91235619,199.81511,40.941037)"><path
             d="m 0,0 c 0.07,0 0.086,0.031 0.086,0.14 0,0.497 -0.031,0.785 -0.117,1.034 -0.202,0.591 -0.677,0.933 -1.299,0.933 -0.933,0 -1.539,-0.785 -1.539,-1.983 0,-1.205 0.63,-1.967 1.617,-1.967 0.327,0 0.653,0.078 0.957,0.218 0.209,0.101 0.279,0.155 0.279,0.218 0,0.015 0,0.015 -0.015,0.054 l -0.14,0.303 c -0.016,0.024 -0.039,0.039 -0.054,0.039 -0.024,0 -0.055,-0.008 -0.078,-0.023 -0.342,-0.195 -0.622,-0.28 -0.902,-0.28 -0.63,0 -0.988,0.466 -1.027,1.314 z m -2.232,0.482 c 0.047,0.754 0.342,1.151 0.863,1.151 0.514,0 0.809,-0.412 0.825,-1.151 z"
             style="fill:#231f20;fill-opacity:1;fill-rule:evenodd;stroke:none"
             id="path55085"
             inkscape:connector-curvature="0" /></g><g
           id="g55087"
           transform="matrix(0.91235619,0,0,0.91235619,201.87881,39.798761)"><path
             d="M 0,0 V 2.185 C 0.381,2.628 0.56,2.776 0.739,2.776 0.785,2.776 0.84,2.76 0.972,2.722 0.98,2.714 0.995,2.714 1.003,2.714 c 0.016,0 0.023,0.008 0.039,0.031 L 1.228,3.173 C 1.244,3.204 1.244,3.219 1.244,3.235 1.244,3.289 1.026,3.359 0.855,3.359 0.645,3.359 0.428,3.25 0.233,3.048 0.148,2.963 0.109,2.924 -0.078,2.706 -0.14,3.048 -0.249,3.25 -0.381,3.25 h -0.7 c -0.062,0 -0.093,-0.031 -0.093,-0.093 V 2.861 c 0,-0.062 0.031,-0.093 0.093,-0.093 h 0.412 C -0.599,2.55 -0.583,2.426 -0.583,1.944 V 0 h -0.443 c -0.055,0 -0.086,-0.031 -0.086,-0.093 v -0.296 c 0,-0.062 0.031,-0.093 0.086,-0.093 h 1.524 c 0.062,0 0.093,0.031 0.093,0.093 v 0.296 C 0.591,-0.031 0.56,0 0.498,0 Z"
             style="fill:#231f20;fill-opacity:1;fill-rule:nonzero;stroke:none"
             id="path55089"
             inkscape:connector-curvature="0" /></g><g
           id="g55091"
           transform="matrix(0.91235619,0,0,0.91235619,205.48139,41.919997)"><path
             d="M 0,0 C 0,-0.062 0.031,-0.093 0.093,-0.093 H 0.42 c 0.062,0 0.093,0.031 0.093,0.093 v 0.676 c 0,0.063 -0.023,0.102 -0.085,0.133 -0.257,0.132 -0.622,0.225 -0.918,0.225 -0.692,0 -1.182,-0.451 -1.182,-1.081 0,-0.303 0.117,-0.536 0.358,-0.731 0.194,-0.155 0.342,-0.241 0.871,-0.489 0.365,-0.164 0.498,-0.319 0.498,-0.576 0,-0.342 -0.249,-0.568 -0.623,-0.568 -0.209,0 -0.404,0.039 -0.699,0.156 v 0.451 c 0,0.062 -0.031,0.093 -0.094,0.093 h -0.326 c -0.062,0 -0.094,-0.031 -0.094,-0.093 v -0.723 c 0,-0.164 0.7,-0.389 1.19,-0.389 0.754,0 1.244,0.443 1.244,1.112 0,0.459 -0.194,0.715 -0.777,0.995 -0.7,0.342 -0.7,0.342 -0.809,0.443 -0.101,0.094 -0.156,0.234 -0.156,0.382 0,0.326 0.218,0.52 0.592,0.52 0.163,0 0.287,-0.023 0.497,-0.108 z"
             style="fill:#231f20;fill-opacity:1;fill-rule:nonzero;stroke:none"
             id="path55093"
             inkscape:connector-curvature="0" /></g><g
           id="g55095"
           transform="matrix(0.91235619,0,0,0.91235619,208.16091,39.798761)"><path
             d="M 0,0 V 3.157 C 0,3.235 -0.015,3.25 -0.086,3.25 h -1.119 c -0.07,0 -0.086,-0.015 -0.086,-0.093 V 2.854 c 0,-0.07 0.016,-0.086 0.086,-0.086 h 0.622 V 0 h -0.56 c -0.062,0 -0.093,-0.031 -0.093,-0.093 v -0.296 c 0,-0.062 0.031,-0.093 0.093,-0.093 h 1.711 c 0.062,0 0.093,0.031 0.093,0.093 v 0.296 C 0.661,-0.031 0.63,0 0.568,0 Z m -0.319,5.085 c -0.272,0 -0.482,-0.21 -0.482,-0.466 0,-0.265 0.21,-0.474 0.474,-0.474 0.257,0 0.467,0.209 0.467,0.466 0,0.257 -0.21,0.474 -0.459,0.474"
             style="fill:#231f20;fill-opacity:1;fill-rule:evenodd;stroke:none"
             id="path55097"
             inkscape:connector-curvature="0" /></g><g
           id="g55099"
           transform="matrix(0.91235619,0,0,0.91235619,209.98223,42.764286)"><path
             d="M 0,0 H -0.552 C -0.63,0 -0.645,-0.016 -0.645,-0.093 v -0.304 c 0,-0.077 0.008,-0.085 0.093,-0.085 H 0 v -2.193 c 0,-0.404 0.023,-0.544 0.101,-0.7 0.14,-0.272 0.459,-0.435 0.848,-0.435 0.396,0 1.011,0.186 1.011,0.311 0,0.008 0,0.008 -0.016,0.039 L 1.859,-3.141 C 1.851,-3.11 1.827,-3.095 1.804,-3.095 1.789,-3.095 1.765,-3.103 1.75,-3.11 1.408,-3.258 1.244,-3.305 1.05,-3.305 c -0.179,0 -0.311,0.055 -0.389,0.156 -0.07,0.093 -0.078,0.163 -0.078,0.474 v 2.193 h 1.035 c 0.062,0 0.093,0.023 0.108,0.078 l 0.086,0.303 C 1.82,-0.07 1.82,-0.07 1.82,-0.054 1.82,-0.016 1.796,0 1.75,0 H 0.583 v 1.197 c 0,0.078 -0.007,0.094 -0.054,0.094 -0.008,0 -0.008,0 -0.047,-0.016 L 0.078,1.166 C 0.031,1.151 0,1.112 0,1.065 Z"
             style="fill:#231f20;fill-opacity:1;fill-rule:nonzero;stroke:none"
             id="path55101"
             inkscape:connector-curvature="0" /></g><g
           id="g55103"
           transform="matrix(0.91235619,0,0,0.91235619,213.26588,42.352802)"><path
             d="M 0,0 H 0.498 C 0.56,0 0.591,0.031 0.591,0.093 v 0.265 c 0,0.062 -0.031,0.093 -0.093,0.093 h -1.423 c -0.063,0 -0.094,-0.031 -0.094,-0.093 V 0.062 c 0,-0.062 0.031,-0.093 0.094,-0.093 h 0.311 l 1.127,-3.181 c 0.024,-0.062 0.031,-0.07 0.094,-0.07 h 0.28 L 0.731,-3.771 c -0.14,-0.444 -0.342,-0.661 -0.599,-0.661 -0.186,0 -0.427,0.093 -0.692,0.272 -0.023,0.015 -0.039,0.023 -0.054,0.023 -0.016,0 -0.047,-0.015 -0.055,-0.039 l -0.155,-0.311 c -0.008,-0.015 -0.016,-0.039 -0.016,-0.046 0,-0.148 0.607,-0.389 0.988,-0.389 0.412,0 0.739,0.218 0.933,0.637 0.132,0.273 0.35,0.902 0.521,1.486 l 0.793,2.768 h 0.288 c 0.062,0 0.093,0.031 0.093,0.093 v 0.296 c 0,0.062 -0.031,0.093 -0.093,0.093 H 1.33 C 1.267,0.451 1.236,0.42 1.236,0.358 V 0.093 C 1.236,0.031 1.267,0 1.33,0 H 1.789 L 1.135,-2.512 C 1.096,-2.683 1.058,-2.831 1.011,-3.056 c -0.086,0.35 -0.086,0.358 -0.156,0.56 z"
             style="fill:#231f20;fill-opacity:1;fill-rule:nonzero;stroke:none"
             id="path55105"
             inkscape:connector-curvature="0" /></g><g
           id="g55107"
           transform="matrix(0.91235619,0,0,0.91235619,220.76902,39.933514)"><path
             d="m 0,0 c -0.264,-0.155 -0.451,-0.218 -0.7,-0.218 -0.731,0 -1.104,0.809 -1.104,2.388 0,1.5 0.303,2.122 1.05,2.122 0.241,0 0.427,-0.054 0.715,-0.217 V 3.414 c 0,-0.063 0.031,-0.094 0.094,-0.094 h 0.349 c 0.063,0 0.094,0.031 0.094,0.094 v 0.863 c 0,0.07 -0.016,0.101 -0.063,0.14 -0.287,0.233 -0.793,0.396 -1.205,0.396 -1.143,0 -1.726,-0.917 -1.726,-2.721 0,-1.859 0.614,-2.831 1.789,-2.831 0.396,0 0.87,0.156 1.174,0.389 0.054,0.047 0.069,0.078 0.069,0.156 v 0.863 c 0,0.062 -0.03,0.093 -0.093,0.093 H 0.093 C 0.031,0.762 0,0.731 0,0.669 Z"
             style="fill:#231f20;fill-opacity:1;fill-rule:nonzero;stroke:none"
             id="path55109"
             inkscape:connector-curvature="0" /></g><g
           id="g55111"
           transform="matrix(0.91235619,0,0,0.91235619,223.8101,42.863646)"><path
             d="m 0,0 c -1.003,0 -1.594,-0.731 -1.594,-1.991 0,-1.236 0.552,-1.959 1.501,-1.959 1.003,0 1.594,0.738 1.594,1.998 C 1.501,-0.731 0.941,0 0,0 m -0.054,-0.49 c 0.606,0 0.925,-0.498 0.925,-1.454 0,-0.498 -0.093,-0.941 -0.249,-1.19 -0.124,-0.202 -0.381,-0.326 -0.661,-0.326 -0.288,0 -0.552,0.132 -0.684,0.342 -0.148,0.256 -0.241,0.707 -0.241,1.205 0,0.925 0.319,1.423 0.91,1.423"
             style="fill:#231f20;fill-opacity:1;fill-rule:evenodd;stroke:none"
             id="path55113"
             inkscape:connector-curvature="0" /></g><g
           id="g55115"
           transform="matrix(0.91235619,0,0,0.91235619,226.36436,44.005723)"><path
             d="m 0,0 v -3.67 c 0,-0.793 0,-0.793 0.039,-0.957 0.078,-0.342 0.373,-0.544 0.793,-0.544 0.295,0 0.661,0.109 0.661,0.194 0,0.016 0,0.016 -0.016,0.055 L 1.384,-4.634 C 1.376,-4.603 1.353,-4.58 1.33,-4.58 1.314,-4.58 1.291,-4.588 1.267,-4.596 1.143,-4.658 1.026,-4.689 0.918,-4.689 0.747,-4.689 0.63,-4.58 0.607,-4.393 0.591,-4.3 0.583,-4.051 0.583,-3.686 v 4.083 c 0,0.062 -0.023,0.085 -0.077,0.085 h -0.98 c -0.063,0 -0.094,-0.031 -0.094,-0.093 V 0.093 C -0.568,0.031 -0.537,0 -0.474,0 Z"
             style="fill:#231f20;fill-opacity:1;fill-rule:nonzero;stroke:none"
             id="path55117"
             inkscape:connector-curvature="0" /></g><g
           id="g55119"
           transform="matrix(0.91235619,0,0,0.91235619,229.87618,42.863646)"><path
             d="m 0,0 c -1.003,0 -1.594,-0.731 -1.594,-1.991 0,-1.236 0.552,-1.959 1.501,-1.959 1.003,0 1.594,0.738 1.594,1.998 C 1.501,-0.731 0.941,0 0,0 m -0.055,-0.49 c 0.607,0 0.926,-0.498 0.926,-1.454 0,-0.498 -0.093,-0.941 -0.249,-1.19 -0.124,-0.202 -0.381,-0.326 -0.661,-0.326 -0.288,0 -0.552,0.132 -0.684,0.342 -0.148,0.256 -0.241,0.707 -0.241,1.205 0,0.925 0.319,1.423 0.909,1.423"
             style="fill:#231f20;fill-opacity:1;fill-rule:evenodd;stroke:none"
             id="path55121"
             inkscape:connector-curvature="0" /></g><g
           id="g55123"
           transform="matrix(0.91235619,0,0,0.91235619,232.46569,38.294741)"><path
             d="m 0,0 c -0.016,-0.039 -0.016,-0.039 -0.016,-0.054 0,-0.055 0.016,-0.063 0.14,-0.133 0.342,-0.179 0.77,-0.287 1.167,-0.287 0.886,0 1.368,0.482 1.368,1.368 0,0.101 -0.007,0.288 -0.015,0.451 -0.039,0.692 -0.039,0.793 -0.039,1.33 v 1.197 c 0,0.343 0.054,0.56 0.194,0.786 0.039,0.062 0.047,0.085 0.047,0.101 0,0.023 -0.016,0.039 -0.031,0.046 L 2.465,5.023 C 2.449,5.031 2.418,5.039 2.403,5.039 2.356,5.039 2.263,4.899 2.185,4.681 1.835,4.922 1.602,5.008 1.252,5.008 0.319,5.008 -0.21,4.285 -0.21,3.001 c 0,-1.073 0.459,-1.734 1.198,-1.734 0.381,0 0.723,0.133 1.073,0.428 0,-0.101 0,-0.117 0.007,-0.404 C 2.076,1.151 2.076,1.011 2.076,0.894 2.076,0.599 2.045,0.451 1.959,0.327 1.843,0.155 1.571,0.047 1.268,0.047 0.98,0.047 0.575,0.163 0.256,0.334 0.233,0.35 0.21,0.358 0.194,0.358 0.179,0.358 0.155,0.342 0.14,0.311 Z M 2.022,2.177 C 1.633,1.897 1.384,1.796 1.096,1.796 c -0.49,0 -0.7,0.404 -0.7,1.345 0,0.879 0.311,1.353 0.895,1.353 0.225,0 0.428,-0.062 0.731,-0.217 z"
             style="fill:#231f20;fill-opacity:1;fill-rule:evenodd;stroke:none"
             id="path55125"
             inkscape:connector-curvature="0" /></g><g
           id="g55127"
           transform="matrix(0.91235619,0,0,0.91235619,239.09209,39.798761)"><path
             d="m 0,0 v 2.201 c 0,0.451 -0.023,0.591 -0.132,0.785 -0.14,0.241 -0.428,0.373 -0.793,0.373 -0.436,0 -0.77,-0.14 -1.252,-0.529 -0.07,0.311 -0.125,0.42 -0.242,0.42 h -0.785 c -0.062,0 -0.093,-0.031 -0.093,-0.093 V 2.861 c 0,-0.062 0.031,-0.093 0.093,-0.093 h 0.443 c 0.039,-0.163 0.047,-0.249 0.047,-0.49 V 0 h -0.435 c -0.063,0 -0.094,-0.031 -0.094,-0.093 v -0.296 c 0,-0.062 0.031,-0.093 0.094,-0.093 h 1.461 c 0.063,0 0.094,0.031 0.094,0.093 v 0.296 C -1.594,-0.031 -1.625,0 -1.688,0 h -0.435 v 2.364 c 0.397,0.358 0.661,0.49 1.019,0.49 0.365,0 0.521,-0.187 0.521,-0.646 v -2.597 c 0,-0.078 0.015,-0.093 0.085,-0.093 h 0.933 c 0.063,0 0.094,0.031 0.094,0.093 v 0.296 C 0.529,-0.031 0.498,0 0.435,0 Z"
             style="fill:#231f20;fill-opacity:1;fill-rule:nonzero;stroke:none"
             id="path55129"
             inkscape:connector-curvature="0" /></g><g
           id="g55131"
           transform="matrix(0.91235619,0,0,0.91235619,243.07327,40.941037)"><path
             d="m 0,0 c 0.07,0 0.085,0.031 0.085,0.14 0,0.497 -0.031,0.785 -0.116,1.034 -0.203,0.591 -0.677,0.933 -1.299,0.933 -0.933,0 -1.54,-0.785 -1.54,-1.983 0,-1.205 0.63,-1.967 1.618,-1.967 0.327,0 0.653,0.078 0.956,0.218 0.21,0.101 0.28,0.155 0.28,0.218 0,0.015 0,0.015 -0.015,0.054 l -0.14,0.303 c -0.016,0.024 -0.039,0.039 -0.055,0.039 -0.023,0 -0.054,-0.008 -0.078,-0.023 -0.342,-0.195 -0.621,-0.28 -0.902,-0.28 -0.629,0 -0.987,0.466 -1.026,1.314 z m -2.232,0.482 c 0.047,0.754 0.342,1.151 0.863,1.151 0.513,0 0.809,-0.412 0.825,-1.151 z"
             style="fill:#231f20;fill-opacity:1;fill-rule:evenodd;stroke:none"
             id="path55133"
             inkscape:connector-curvature="0" /></g><g
           id="g55135"
           transform="matrix(0.91235619,0,0,0.91235619,139.50739,48.347079)"><path
             d="m 0,0 c 0,0.991 -0.548,1.691 -1.365,2.146 l -0.968,0.537 c -0.851,0.478 -1.073,0.711 -1.073,1.224 0,0.642 0.443,1.015 1.178,1.015 0.327,0 0.595,-0.058 0.968,-0.186 V 3.802 c 0,-0.116 0.035,-0.163 0.163,-0.163 h 0.7 c 0.129,0 0.164,0.047 0.164,0.163 v 1.47 c 0,0.105 -0.047,0.163 -0.129,0.222 -0.373,0.268 -1.154,0.478 -1.878,0.478 -1.481,0 -2.437,-0.863 -2.437,-2.205 0,-0.968 0.478,-1.528 1.236,-1.947 l 1.143,-0.63 c 0.875,-0.478 1.015,-0.723 1.015,-1.307 0,-0.711 -0.455,-1.143 -1.213,-1.143 -0.373,0 -0.747,0.094 -1.248,0.28 v 0.957 c 0,0.128 -0.047,0.175 -0.175,0.175 h -0.688 c -0.129,0 -0.175,-0.047 -0.175,-0.175 v -1.563 c 0,-0.187 0.14,-0.257 0.291,-0.327 0.584,-0.28 1.365,-0.42 1.995,-0.42 C -1.003,-2.333 0,-1.388 0,0"
             style="fill:#231f20;fill-opacity:1;fill-rule:nonzero;stroke:none"
             id="path55137"
             inkscape:connector-curvature="0" /></g><g
           id="g55139"
           transform="matrix(0.91235619,0,0,0.91235619,145.63107,49.049506)"><path
             d="m 0,0 c 0,1.913 -0.641,2.916 -1.913,2.916 -0.56,0 -0.956,-0.175 -1.598,-0.642 -0.105,0.292 -0.128,0.455 -0.35,0.455 h -1.353 c -0.116,0 -0.163,-0.035 -0.163,-0.151 V 1.971 c 0,-0.116 0.047,-0.151 0.163,-0.151 h 0.595 c 0.105,-0.339 0.105,-0.525 0.105,-0.887 v -5.342 h -0.63 c -0.105,0 -0.14,-0.035 -0.14,-0.152 v -0.594 c 0,-0.117 0.035,-0.164 0.14,-0.164 h 2.508 c 0.117,0 0.14,0.047 0.14,0.164 v 0.594 c 0,0.117 -0.023,0.152 -0.14,0.152 h -0.688 v 1.691 c 0.466,-0.303 0.793,-0.408 1.283,-0.408 C -0.711,-3.126 0,-2.03 0,0 m -1.213,-0.047 c 0,-1.563 -0.28,-2.123 -1.073,-2.123 -0.35,0 -0.607,0.082 -1.038,0.35 v 3.243 c 0.49,0.373 0.77,0.513 1.131,0.513 0.7,0 0.98,-0.583 0.98,-1.983"
             style="fill:#231f20;fill-opacity:1;fill-rule:evenodd;stroke:none"
             id="path55141"
             inkscape:connector-curvature="0" /></g><g
           id="g55143"
           transform="matrix(0.91235619,0,0,0.91235619,151.37556,48.953707)"><path
             d="m 0,0 c 0,1.901 -0.886,3.021 -2.391,3.021 -1.54,0 -2.473,-1.143 -2.473,-3.033 0,-1.901 0.887,-3.009 2.403,-3.009 C -0.933,-3.021 0,-1.878 0,0 m -1.26,0.035 c 0,-1.446 -0.361,-2.111 -1.166,-2.111 -0.805,0 -1.178,0.665 -1.178,2.111 0,1.388 0.385,2.029 1.178,2.029 0.793,0 1.166,-0.641 1.166,-2.029"
             style="fill:#231f20;fill-opacity:1;fill-rule:evenodd;stroke:none"
             id="path55145"
             inkscape:connector-curvature="0" /></g><g
           id="g55147"
           transform="matrix(0.91235619,0,0,0.91235619,156.1281,51.401198)"><path
             d="m 0,0 c 0.035,0.093 0.047,0.14 -0.058,0.198 -0.14,0.082 -0.35,0.14 -0.549,0.14 -0.665,0 -1.038,-0.478 -1.423,-0.944 -0.128,0.571 -0.233,0.758 -0.443,0.758 H -3.756 C -3.872,0.152 -3.908,0.117 -3.908,0 v -0.606 c 0,-0.117 0.036,-0.152 0.152,-0.152 h 0.595 c 0.093,-0.338 0.117,-0.525 0.117,-1.108 v -2.765 h -0.642 c -0.105,0 -0.14,-0.034 -0.14,-0.139 v -0.619 c 0,-0.105 0.035,-0.14 0.14,-0.14 h 2.508 c 0.117,0 0.151,0.035 0.151,0.14 v 0.619 c 0,0.105 -0.046,0.139 -0.151,0.139 h -0.677 v 3.138 c 0.467,0.537 0.735,0.723 0.992,0.723 0.105,0 0.221,-0.023 0.408,-0.093 0.07,-0.023 0.105,0.012 0.128,0.07 z"
             style="fill:#231f20;fill-opacity:1;fill-rule:nonzero;stroke:none"
             id="path55149"
             inkscape:connector-curvature="0" /></g><g
           id="g55151"
           transform="matrix(0.91235619,0,0,0.91235619,160.84932,46.708393)"><path
             d="M 0,0 -0.152,0.607 C -0.175,0.723 -0.222,0.793 -0.385,0.723 -0.688,0.595 -0.921,0.478 -1.26,0.478 c -0.466,0 -0.571,0.163 -0.571,0.852 v 3.067 h 1.353 c 0.116,0 0.163,0.024 0.186,0.14 l 0.14,0.56 c 0.035,0.128 0.047,0.198 -0.128,0.198 h -1.551 v 1.726 c 0,0.199 -0.082,0.164 -0.234,0.141 L -2.846,7.01 C -2.963,6.987 -3.009,6.952 -3.009,6.835 v -1.54 h -0.817 c -0.151,0 -0.163,-0.023 -0.163,-0.163 V 4.56 c 0,-0.139 0.012,-0.163 0.163,-0.163 h 0.817 V 1.225 c 0,-1.05 0.28,-1.762 1.504,-1.762 0.455,0 0.957,0.094 1.388,0.292 C 0.035,-0.175 0.035,-0.14 0,0"
             style="fill:#231f20;fill-opacity:1;fill-rule:nonzero;stroke:none"
             id="path55153"
             inkscape:connector-curvature="0" /></g><g
           id="g55155"
           transform="matrix(0.91235619,0,0,0.91235619,167.43765,46.484784)"><path
             d="m 0,0 v 0.618 c 0,0.105 -0.047,0.14 -0.152,0.14 h -0.63 v 3.173 c 0,1.038 -0.256,1.796 -1.492,1.796 -0.642,0 -1.155,-0.222 -1.692,-0.735 v 3.091 c 0,0.105 -0.035,0.14 -0.14,0.14 H -5.82 c -0.117,0 -0.14,-0.035 -0.14,-0.14 V 7.465 c 0,-0.105 0.023,-0.14 0.14,-0.14 h 0.676 V 0.758 h -0.63 c -0.105,0 -0.14,-0.035 -0.14,-0.14 V 0 c 0,-0.105 0.024,-0.14 0.14,-0.14 h 2.45 c 0.105,0 0.14,0.035 0.14,0.14 v 0.618 c 0,0.105 -0.035,0.14 -0.14,0.14 h -0.642 v 3.371 c 0.525,0.455 0.863,0.618 1.272,0.618 0.536,0 0.723,-0.268 0.723,-0.991 V 0.023 c 0,-0.14 0.035,-0.163 0.175,-0.163 h 1.644 C -0.047,-0.14 0,-0.105 0,0"
             style="fill:#231f20;fill-opacity:1;fill-rule:nonzero;stroke:none"
             id="path55157"
             inkscape:connector-curvature="0" /></g><g
           id="g55159"
           transform="matrix(0.91235619,0,0,0.91235619,172.96413,48.953707)"><path
             d="m 0,0 c 0,1.901 -0.886,3.021 -2.391,3.021 -1.539,0 -2.473,-1.143 -2.473,-3.033 0,-1.901 0.887,-3.009 2.403,-3.009 C -0.933,-3.021 0,-1.878 0,0 m -1.259,0.035 c 0,-1.446 -0.362,-2.111 -1.167,-2.111 -0.805,0 -1.178,0.665 -1.178,2.111 0,1.388 0.385,2.029 1.178,2.029 0.793,0 1.167,-0.641 1.167,-2.029"
             style="fill:#231f20;fill-opacity:1;fill-rule:evenodd;stroke:none"
             id="path55161"
             inkscape:connector-curvature="0" /></g><g
           id="g55163"
           transform="matrix(0.91235619,0,0,0.91235619,178.00397,46.782666)"><path
             d="M 0,0 -0.257,0.63 C -0.291,0.723 -0.338,0.712 -0.431,0.665 -0.828,0.443 -1.213,0.338 -1.563,0.338 c -0.875,0 -1.271,0.63 -1.271,2.018 0,1.388 0.42,2.065 1.294,2.065 0.175,0 0.327,-0.047 0.56,-0.14 v -0.77 c 0,-0.117 0.035,-0.152 0.14,-0.152 h 0.7 C -0.035,3.359 0,3.394 0,3.511 v 1.295 c 0,0.105 -0.023,0.163 -0.117,0.221 -0.326,0.222 -0.863,0.374 -1.434,0.374 -1.575,0 -2.543,-1.202 -2.543,-3.15 0,-1.843 0.875,-2.892 2.391,-2.892 0.572,0 1.155,0.128 1.633,0.408 C 0.047,-0.163 0.047,-0.105 0,0"
             style="fill:#231f20;fill-opacity:1;fill-rule:nonzero;stroke:none"
             id="path55165"
             inkscape:connector-curvature="0" /></g><g
           id="g55167"
           transform="matrix(0.91235619,0,0,0.91235619,184.72356,46.484784)"><path
             d="m 0,0 v 0.618 c 0,0.105 -0.047,0.14 -0.152,0.14 h -0.63 v 3.173 c 0,1.038 -0.256,1.796 -1.492,1.796 -0.642,0 -1.155,-0.222 -1.692,-0.735 v 3.091 c 0,0.105 -0.035,0.14 -0.14,0.14 H -5.82 c -0.117,0 -0.14,-0.035 -0.14,-0.14 V 7.465 c 0,-0.105 0.023,-0.14 0.14,-0.14 h 0.676 V 0.758 h -0.63 c -0.105,0 -0.14,-0.035 -0.14,-0.14 V 0 c 0,-0.105 0.024,-0.14 0.14,-0.14 h 2.45 c 0.105,0 0.14,0.035 0.14,0.14 v 0.618 c 0,0.105 -0.035,0.14 -0.14,0.14 h -0.642 v 3.371 c 0.525,0.455 0.863,0.618 1.272,0.618 0.536,0 0.723,-0.268 0.723,-0.991 V 0.023 c 0,-0.14 0.035,-0.163 0.175,-0.163 h 1.644 C -0.047,-0.14 0,-0.105 0,0"
             style="fill:#231f20;fill-opacity:1;fill-rule:nonzero;stroke:none"
             id="path55169"
             inkscape:connector-curvature="0" /></g><g
           id="g55171"
           transform="matrix(0.91235619,0,0,0.91235619,189.55858,47.804413)"><path
             d="m 0,0 c 0,0.548 -0.175,0.98 -0.758,1.283 l -1.143,0.595 c -0.525,0.28 -0.723,0.431 -0.723,0.781 0,0.432 0.291,0.689 0.816,0.689 0.187,0 0.327,-0.036 0.618,-0.117 V 2.624 c 0,-0.116 0.035,-0.151 0.14,-0.151 h 0.642 c 0.105,0 0.151,0.035 0.151,0.151 v 1.12 c 0,0.082 -0.046,0.14 -0.14,0.198 -0.314,0.199 -0.874,0.339 -1.411,0.339 -1.131,0 -1.936,-0.735 -1.936,-1.762 0,-0.431 0.163,-0.804 0.455,-1.084 0.268,-0.257 0.501,-0.374 1.329,-0.723 0.665,-0.28 0.829,-0.444 0.829,-0.805 0,-0.455 -0.327,-0.724 -0.829,-0.724 -0.291,0 -0.501,0.047 -0.944,0.187 v 0.642 c 0,0.14 -0.024,0.174 -0.14,0.174 h -0.642 c -0.116,0 -0.163,-0.046 -0.163,-0.151 v -1.178 c 0,-0.093 0.023,-0.128 0.116,-0.175 0.502,-0.257 1.249,-0.443 1.82,-0.443 C -0.758,-1.761 0,-1.061 0,0"
             style="fill:#231f20;fill-opacity:1;fill-rule:nonzero;stroke:none"
             id="path55173"
             inkscape:connector-curvature="0" /></g><g
           id="g55175"
           transform="matrix(0.91235619,0,0,0.91235619,194.73156,46.782666)"><path
             d="M 0,0 -0.257,0.63 C -0.292,0.723 -0.338,0.712 -0.432,0.665 -0.828,0.443 -1.213,0.338 -1.563,0.338 c -0.875,0 -1.271,0.63 -1.271,2.018 0,1.388 0.42,2.065 1.294,2.065 0.175,0 0.327,-0.047 0.56,-0.14 v -0.77 c 0,-0.117 0.035,-0.152 0.14,-0.152 h 0.7 C -0.035,3.359 0,3.394 0,3.511 v 1.295 c 0,0.105 -0.023,0.163 -0.116,0.221 -0.327,0.222 -0.864,0.374 -1.435,0.374 -1.575,0 -2.543,-1.202 -2.543,-3.15 0,-1.843 0.875,-2.892 2.391,-2.892 0.572,0 1.155,0.128 1.633,0.408 C 0.047,-0.163 0.047,-0.105 0,0"
             style="fill:#231f20;fill-opacity:1;fill-rule:nonzero;stroke:none"
             id="path55177"
             inkscape:connector-curvature="0" /></g><g
           id="g55179"
           transform="matrix(0.91235619,0,0,0.91235619,201.45104,46.484784)"><path
             d="m 0,0 v 0.618 c 0,0.105 -0.047,0.14 -0.152,0.14 h -0.629 v 3.173 c 0,1.038 -0.257,1.796 -1.493,1.796 -0.642,0 -1.155,-0.222 -1.692,-0.735 v 3.091 c 0,0.105 -0.035,0.14 -0.14,0.14 H -5.82 c -0.117,0 -0.14,-0.035 -0.14,-0.14 V 7.465 c 0,-0.105 0.023,-0.14 0.14,-0.14 h 0.676 V 0.758 h -0.63 c -0.105,0 -0.14,-0.035 -0.14,-0.14 V 0 c 0,-0.105 0.024,-0.14 0.14,-0.14 h 2.45 c 0.105,0 0.14,0.035 0.14,0.14 v 0.618 c 0,0.105 -0.035,0.14 -0.14,0.14 h -0.642 v 3.371 c 0.525,0.455 0.863,0.618 1.272,0.618 0.536,0 0.723,-0.268 0.723,-0.991 V 0.023 c 0,-0.14 0.035,-0.163 0.175,-0.163 h 1.644 C -0.047,-0.14 0,-0.105 0,0"
             style="fill:#231f20;fill-opacity:1;fill-rule:nonzero;stroke:none"
             id="path55181"
             inkscape:connector-curvature="0" /></g><g
           id="g55183"
           transform="matrix(0.91235619,0,0,0.91235619,207.75465,46.484784)"><path
             d="m 0,0 v 0.618 c 0,0.105 -0.047,0.14 -0.152,0.14 h -0.571 c -0.082,0.292 -0.105,0.49 -0.105,0.898 v 3.721 c 0,0.128 -0.035,0.163 -0.163,0.163 h -1.68 c -0.105,0 -0.14,-0.046 -0.14,-0.151 V 4.782 c 0,-0.116 0.035,-0.151 0.14,-0.151 h 0.665 V 1.178 C -2.391,0.84 -2.811,0.665 -3.208,0.665 c -0.571,0 -0.758,0.291 -0.758,1.248 v 3.464 c 0,0.128 -0.035,0.163 -0.163,0.163 h -1.645 c -0.105,0 -0.14,-0.035 -0.14,-0.151 V 4.782 c 0,-0.116 0.035,-0.151 0.14,-0.151 h 0.619 v -3.08 c 0,-0.571 0.046,-1.119 0.513,-1.516 0.268,-0.222 0.653,-0.35 1.131,-0.35 0.653,0 1.073,0.175 1.68,0.688 0.116,-0.431 0.198,-0.513 0.385,-0.513 h 1.294 C -0.047,-0.14 0,-0.105 0,0"
             style="fill:#231f20;fill-opacity:1;fill-rule:nonzero;stroke:none"
             id="path55185"
             inkscape:connector-curvature="0" /></g><g
           id="g55187"
           transform="matrix(0.91235619,0,0,0.91235619,211.52556,46.537962)"><path
             d="m 0,0 -0.21,0.735 c -0.035,0.105 -0.093,0.07 -0.163,0.047 -0.164,-0.07 -0.315,-0.105 -0.455,-0.105 -0.385,0 -0.408,0.303 -0.408,0.839 v 6.509 c 0,0.105 -0.035,0.14 -0.152,0.14 h -1.714 c -0.117,0 -0.141,-0.035 -0.141,-0.14 V 7.407 c 0,-0.105 0.024,-0.14 0.141,-0.14 h 0.676 V 1.633 c 0,-1.026 -0.012,-1.983 1.341,-1.983 0.339,0 0.712,0.058 1.003,0.187 C 0.035,-0.117 0.035,-0.105 0,0"
             style="fill:#231f20;fill-opacity:1;fill-rule:nonzero;stroke:none"
             id="path55189"
             inkscape:connector-curvature="0" /></g><g
           id="g55191"
           transform="matrix(0.91235619,0,0,0.91235619,216.82027,49.070845)"><path
             d="m 0,0 c 0,1.866 -0.793,2.893 -2.228,2.893 -1.469,0 -2.426,-1.213 -2.426,-3.056 0,-1.89 0.933,-2.986 2.52,-2.986 0.606,0 1.352,0.186 1.819,0.478 0.14,0.082 0.198,0.152 0.128,0.291 l -0.256,0.572 c -0.035,0.093 -0.094,0.105 -0.164,0.07 -0.361,-0.163 -0.734,-0.42 -1.423,-0.42 -0.898,0 -1.364,0.595 -1.411,1.726 h 3.243 C 0,-0.432 0,-0.268 0,0 m -1.248,0.466 h -2.169 c 0.081,1.05 0.431,1.528 1.131,1.528 0.688,0 1.015,-0.489 1.038,-1.528"
             style="fill:#231f20;fill-opacity:1;fill-rule:evenodd;stroke:none"
             id="path55193"
             inkscape:connector-curvature="0" /></g><g
           id="g55195"
           transform="matrix(0.91235619,0,0,0.91235619,226.79873,46.506217)"><path
             d="M 0,0 V 0.606 C 0,0.735 -0.035,0.77 -0.163,0.77 h -0.49 l -2.485,3.102 2.322,3.021 h 0.548 c 0.128,0 0.163,0.047 0.163,0.175 v 0.607 c 0,0.128 -0.035,0.163 -0.163,0.163 h -2.275 c -0.128,0 -0.175,-0.035 -0.175,-0.163 V 7.068 c 0,-0.128 0.047,-0.175 0.175,-0.175 h 0.339 L -4.316,4.047 v 2.846 h 0.642 c 0.151,0 0.175,0.035 0.175,0.187 v 0.571 c 0,0.152 -0.024,0.187 -0.175,0.187 h -2.578 c -0.151,0 -0.175,-0.035 -0.175,-0.187 V 7.08 c 0,-0.152 0.024,-0.187 0.175,-0.187 h 0.677 V 0.77 h -0.677 c -0.151,0 -0.175,-0.035 -0.175,-0.187 V 0.012 c 0,-0.152 0.024,-0.175 0.175,-0.175 h 2.543 c 0.152,0 0.21,0.023 0.21,0.175 v 0.571 c 0,0.152 -0.047,0.187 -0.199,0.187 H -4.316 V 3.522 L -2.181,0.77 h -0.35 C -2.66,0.77 -2.695,0.735 -2.695,0.606 V 0 c 0,-0.128 0.059,-0.163 0.176,-0.163 h 2.356 C -0.035,-0.163 0,-0.128 0,0"
             style="fill:#231f20;fill-opacity:1;fill-rule:evenodd;stroke:none"
             id="path55197"
             inkscape:connector-curvature="0" /></g><g
           id="g55199"
           transform="matrix(0.91235619,0,0,0.91235619,231.6398,53.252826)"><path
             d="m 0,0 c 0,0.397 -0.315,0.735 -0.711,0.735 -0.397,0 -0.712,-0.338 -0.712,-0.735 0,-0.385 0.315,-0.711 0.712,-0.711 C -0.315,-0.711 0,-0.396 0,0 m -2.181,0 c 0,0.397 -0.327,0.735 -0.723,0.735 -0.397,0 -0.7,-0.338 -0.7,-0.735 0,-0.385 0.303,-0.711 0.7,-0.711 0.396,0 0.723,0.326 0.723,0.711 m 2.764,-4.712 c 0,1.901 -0.886,3.021 -2.391,3.021 -1.54,0 -2.473,-1.143 -2.473,-3.033 0,-1.901 0.887,-3.009 2.403,-3.009 1.528,0 2.461,1.143 2.461,3.021 m -1.259,0.035 c 0,-1.446 -0.362,-2.111 -1.167,-2.111 -0.805,0 -1.178,0.665 -1.178,2.111 0,1.388 0.385,2.029 1.178,2.029 0.793,0 1.167,-0.641 1.167,-2.029"
             style="fill:#231f20;fill-opacity:1;fill-rule:evenodd;stroke:none"
             id="path55201"
             inkscape:connector-curvature="0" /></g><g
           id="g55203"
           transform="matrix(0.91235619,0,0,0.91235619,236.12607,46.537962)"><path
             d="m 0,0 -0.21,0.735 c -0.035,0.105 -0.093,0.07 -0.163,0.047 -0.164,-0.07 -0.315,-0.105 -0.455,-0.105 -0.385,0 -0.409,0.303 -0.409,0.839 v 6.509 c 0,0.105 -0.034,0.14 -0.151,0.14 h -1.714 c -0.117,0 -0.141,-0.035 -0.141,-0.14 V 7.407 c 0,-0.105 0.024,-0.14 0.141,-0.14 h 0.676 V 1.633 c 0,-1.026 -0.012,-1.983 1.341,-1.983 0.338,0 0.712,0.058 1.003,0.187 C 0.035,-0.117 0.035,-0.105 0,0"
             style="fill:#231f20;fill-opacity:1;fill-rule:nonzero;stroke:none"
             id="path55205"
             inkscape:connector-curvature="0" /></g><g
           id="g55207"
           transform="matrix(0.91235619,0,0,0.91235619,242.72956,46.484784)"><path
             d="m 0,0 v 0.618 c 0,0.105 -0.035,0.14 -0.14,0.14 h -0.641 v 3.173 c 0,1.283 -0.42,1.796 -1.447,1.796 -0.665,0 -1.154,-0.222 -1.843,-0.805 -0.093,0.385 -0.081,0.618 -0.35,0.618 h -1.411 c -0.116,0 -0.152,-0.035 -0.152,-0.151 V 4.782 c 0,-0.116 0.036,-0.151 0.152,-0.151 h 0.63 C -5.132,4.327 -5.12,4.176 -5.12,3.779 V 0.758 h -0.642 c -0.105,0 -0.14,-0.035 -0.14,-0.14 V 0 c 0,-0.117 0.035,-0.14 0.14,-0.14 h 2.449 c 0.105,0 0.164,0.023 0.164,0.14 v 0.618 c 0,0.105 -0.059,0.14 -0.164,0.14 h -0.618 v 3.371 c 0.49,0.455 0.828,0.618 1.272,0.618 0.49,0 0.688,-0.291 0.688,-0.979 V 0.023 c 0,-0.14 0.035,-0.163 0.175,-0.163 H -0.14 C -0.035,-0.14 0,-0.105 0,0"
             style="fill:#231f20;fill-opacity:1;fill-rule:nonzero;stroke:none"
             id="path55209"
             inkscape:connector-curvature="0" /></g><g
           id="g55211"
           transform="matrix(0.91235619,0,0,0.91235619,140.51835,60.702117)"><path
             d="M 0,0 C 0,1.26 -0.175,2.648 -1.225,3.464 -1.691,3.826 -2.134,3.942 -3.266,3.942 H -5.785 C -5.937,3.942 -5.96,3.907 -5.96,3.756 V 3.184 c 0,-0.151 0.023,-0.187 0.175,-0.187 h 0.676 v -6.123 h -0.676 c -0.152,0 -0.175,-0.035 -0.175,-0.187 v -0.571 c 0,-0.152 0.023,-0.175 0.175,-0.175 h 2.554 C -0.782,-4.059 0,-2.578 0,0 m -1.33,-0.024 c 0,-2.215 -0.513,-3.009 -1.936,-3.009 h -0.583 v 5.937 h 0.536 c 0.479,0 0.712,-0.035 0.98,-0.151 0.712,-0.292 1.003,-1.132 1.003,-2.777"
             style="fill:#231f20;fill-opacity:1;fill-rule:evenodd;stroke:none"
             id="path55213"
             inkscape:connector-curvature="0" /></g><g
           id="g55215"
           transform="matrix(0.91235619,0,0,0.91235619,146.33106,59.712398)"><path
             d="m 0,0 c 0,1.866 -0.793,2.893 -2.228,2.893 -1.469,0 -2.426,-1.213 -2.426,-3.056 0,-1.89 0.933,-2.986 2.52,-2.986 0.606,0 1.353,0.186 1.819,0.478 0.14,0.082 0.198,0.152 0.128,0.292 l -0.256,0.571 c -0.035,0.093 -0.094,0.105 -0.164,0.07 -0.361,-0.163 -0.734,-0.42 -1.422,-0.42 -0.899,0 -1.365,0.595 -1.412,1.726 h 3.243 C 0,-0.432 0,-0.268 0,0 m -1.248,0.467 h -2.17 c 0.082,1.049 0.432,1.528 1.132,1.528 0.688,0 1.015,-0.49 1.038,-1.528"
             style="fill:#231f20;fill-opacity:1;fill-rule:evenodd;stroke:none"
             id="path55217"
             inkscape:connector-curvature="0" /></g><g
           id="g55219"
           transform="matrix(0.91235619,0,0,0.91235619,152.95875,57.126317)"><path
             d="m 0,0 v 0.618 c 0,0.105 -0.047,0.14 -0.152,0.14 h -0.571 c -0.082,0.292 -0.105,0.49 -0.105,0.898 v 3.721 c 0,0.128 -0.035,0.163 -0.164,0.163 h -1.679 c -0.105,0 -0.14,-0.046 -0.14,-0.151 V 4.782 c 0,-0.116 0.035,-0.151 0.14,-0.151 h 0.665 V 1.178 C -2.391,0.84 -2.811,0.665 -3.208,0.665 c -0.571,0 -0.758,0.291 -0.758,1.248 v 3.464 c 0,0.128 -0.035,0.163 -0.163,0.163 h -1.645 c -0.105,0 -0.14,-0.035 -0.14,-0.151 V 4.782 c 0,-0.116 0.035,-0.151 0.14,-0.151 h 0.618 v -3.08 c 0,-0.571 0.047,-1.119 0.514,-1.516 0.268,-0.222 0.653,-0.35 1.131,-0.35 0.653,0 1.073,0.175 1.68,0.688 0.116,-0.431 0.198,-0.513 0.385,-0.513 h 1.294 C -0.047,-0.14 0,-0.105 0,0"
             style="fill:#231f20;fill-opacity:1;fill-rule:nonzero;stroke:none"
             id="path55221"
             inkscape:connector-curvature="0" /></g><g
           id="g55223"
           transform="matrix(0.91235619,0,0,0.91235619,157.55951,57.350025)"><path
             d="M 0,0 -0.152,0.607 C -0.175,0.723 -0.222,0.793 -0.385,0.723 -0.688,0.595 -0.921,0.478 -1.26,0.478 c -0.466,0 -0.571,0.163 -0.571,0.852 v 3.067 h 1.353 c 0.116,0 0.163,0.024 0.186,0.14 l 0.14,0.56 c 0.035,0.128 0.047,0.198 -0.128,0.198 h -1.551 v 1.727 c 0,0.198 -0.082,0.163 -0.234,0.14 L -2.846,7.01 C -2.963,6.987 -3.009,6.952 -3.009,6.835 v -1.54 h -0.817 c -0.152,0 -0.163,-0.023 -0.163,-0.163 V 4.56 c 0,-0.139 0.011,-0.163 0.163,-0.163 h 0.817 V 1.225 c 0,-1.05 0.28,-1.762 1.504,-1.762 0.455,0 0.957,0.094 1.388,0.292 C 0.035,-0.175 0.035,-0.14 0,0"
             style="fill:#231f20;fill-opacity:1;fill-rule:nonzero;stroke:none"
             id="path55225"
             inkscape:connector-curvature="0" /></g><g
           id="g55227"
           transform="matrix(0.91235619,0,0,0.91235619,162.43449,58.446044)"><path
             d="m 0,0 c 0,0.548 -0.175,0.98 -0.758,1.283 l -1.143,0.595 c -0.525,0.28 -0.723,0.431 -0.723,0.781 0,0.432 0.291,0.689 0.816,0.689 0.187,0 0.327,-0.036 0.618,-0.117 V 2.624 c 0,-0.116 0.035,-0.151 0.14,-0.151 h 0.642 c 0.105,0 0.151,0.035 0.151,0.151 v 1.12 c 0,0.082 -0.046,0.14 -0.139,0.198 -0.316,0.199 -0.875,0.339 -1.412,0.339 -1.131,0 -1.936,-0.735 -1.936,-1.762 0,-0.431 0.163,-0.804 0.455,-1.084 0.268,-0.257 0.501,-0.374 1.329,-0.723 0.665,-0.28 0.829,-0.444 0.829,-0.805 0,-0.455 -0.327,-0.724 -0.829,-0.724 -0.291,0 -0.501,0.047 -0.944,0.187 v 0.642 c 0,0.14 -0.024,0.174 -0.14,0.174 h -0.642 c -0.116,0 -0.163,-0.046 -0.163,-0.151 v -1.178 c 0,-0.093 0.023,-0.128 0.117,-0.175 0.501,-0.257 1.248,-0.443 1.819,-0.443 C -0.758,-1.761 0,-1.061 0,0"
             style="fill:#231f20;fill-opacity:1;fill-rule:nonzero;stroke:none"
             id="path55229"
             inkscape:connector-curvature="0" /></g><g
           id="g55231"
           transform="matrix(0.91235619,0,0,0.91235619,167.60746,57.424297)"><path
             d="M 0,0 -0.257,0.63 C -0.292,0.723 -0.338,0.711 -0.432,0.665 -0.828,0.443 -1.213,0.338 -1.563,0.338 c -0.875,0 -1.271,0.63 -1.271,2.018 0,1.388 0.42,2.065 1.294,2.065 0.175,0 0.327,-0.047 0.56,-0.14 v -0.77 c 0,-0.117 0.035,-0.152 0.14,-0.152 h 0.7 C -0.035,3.359 0,3.394 0,3.511 v 1.295 c 0,0.105 -0.023,0.163 -0.117,0.221 -0.326,0.222 -0.863,0.374 -1.434,0.374 -1.575,0 -2.543,-1.202 -2.543,-3.15 0,-1.843 0.875,-2.892 2.391,-2.892 0.572,0 1.155,0.128 1.633,0.408 C 0.047,-0.163 0.047,-0.105 0,0"
             style="fill:#231f20;fill-opacity:1;fill-rule:nonzero;stroke:none"
             id="path55233"
             inkscape:connector-curvature="0" /></g><g
           id="g55235"
           transform="matrix(0.91235619,0,0,0.91235619,174.32705,57.126317)"><path
             d="m 0,0 v 0.618 c 0,0.105 -0.047,0.14 -0.152,0.14 h -0.63 v 3.173 c 0,1.038 -0.256,1.796 -1.492,1.796 -0.642,0 -1.155,-0.222 -1.692,-0.735 v 3.091 c 0,0.105 -0.035,0.14 -0.14,0.14 H -5.82 c -0.117,0 -0.14,-0.035 -0.14,-0.14 V 7.465 c 0,-0.105 0.023,-0.14 0.14,-0.14 h 0.676 V 0.758 h -0.63 c -0.105,0 -0.14,-0.035 -0.14,-0.14 V 0 c 0,-0.105 0.024,-0.14 0.14,-0.14 h 2.45 c 0.105,0 0.14,0.035 0.14,0.14 v 0.618 c 0,0.105 -0.035,0.14 -0.14,0.14 h -0.642 v 3.371 c 0.525,0.455 0.863,0.618 1.271,0.618 0.537,0 0.724,-0.268 0.724,-0.991 V 0.024 c 0,-0.141 0.035,-0.164 0.175,-0.164 h 1.644 C -0.047,-0.14 0,-0.105 0,0"
             style="fill:#231f20;fill-opacity:1;fill-rule:nonzero;stroke:none"
             id="path55237"
             inkscape:connector-curvature="0" /></g><g
           id="g55239"
           transform="matrix(0.91235619,0,0,0.91235619,179.87496,59.712398)"><path
             d="m 0,0 c 0,1.866 -0.793,2.893 -2.228,2.893 -1.47,0 -2.426,-1.213 -2.426,-3.056 0,-1.89 0.933,-2.986 2.52,-2.986 0.606,0 1.353,0.186 1.819,0.478 0.14,0.082 0.198,0.152 0.128,0.292 l -0.256,0.571 c -0.035,0.093 -0.094,0.105 -0.164,0.07 -0.361,-0.163 -0.735,-0.42 -1.423,-0.42 -0.898,0 -1.364,0.595 -1.411,1.726 h 3.243 C 0,-0.432 0,-0.268 0,0 m -1.248,0.467 h -2.17 c 0.082,1.049 0.432,1.528 1.132,1.528 0.688,0 1.014,-0.49 1.038,-1.528"
             style="fill:#231f20;fill-opacity:1;fill-rule:evenodd;stroke:none"
             id="path55241"
             inkscape:connector-curvature="0" /></g><g
           id="g55243"
           transform="matrix(0.91235619,0,0,0.91235619,91.814237,50.2935)"><path
             d="m 0,0 c 0,10.806 8.76,19.566 19.566,19.566 10.807,0 19.567,-8.76 19.567,-19.566 0,-10.806 -8.76,-19.566 -19.567,-19.566 C 8.76,-19.566 0,-10.806 0,0 Z"
             style="fill:none;stroke:#1f4fa2;stroke-width:1.02600002;stroke-linecap:butt;stroke-linejoin:miter;stroke-miterlimit:3.86400008;stroke-dasharray:none;stroke-opacity:1"
             id="path55245"
             inkscape:connector-curvature="0" /></g><g
           id="g55247"
           transform="matrix(0.91235619,0,0,0.91235619,97.482334,53.24206)"><path
             d="m 0,0 v -12.233 h -1.939 c -1.557,2.639 -2.45,5.716 -2.45,9.001 0,9.799 7.944,17.743 17.743,17.743 9.799,0 17.742,-7.944 17.742,-17.743 0,-3.285 -0.893,-6.362 -2.45,-9.001 H 26.699 V 0 h 0.866 V 1.014 H 22.674 V 0 H 23.54 V -12.233 H 18.855 V 0 h 0.866 V 1.014 H 14.83 V 0 h 0.866 V -12.233 H 11.005 V 0 h 0.866 V 1.014 H 6.98 V 0 H 7.846 V -12.233 H 3.159 V 0 H 4.025 V 1.014 H -0.866 V 0 Z M -0.866,2.593 H 27.565 V 4.565 L 13.352,12.522 -0.866,4.566 Z m 4.604,2.122 9.606,5.364 9.619,-5.364 z M 0.71,-15.679 c -0.492,0.5 -0.954,1.028 -1.384,1.583 h 28.056 c -0.431,-0.555 -0.893,-1.083 -1.385,-1.583 z m 23.105,-1.884 c -2.933,-2.145 -6.549,-3.411 -10.461,-3.411 -3.912,0 -7.529,1.266 -10.462,3.411 z"
             style="fill:#1f4fa2;fill-opacity:1;fill-rule:evenodd;stroke:none"
             id="path55249"
             inkscape:connector-curvature="0" /></g><text
           xml:space="preserve"
           style="font-style:normal;font-weight:normal;font-size:64px;line-height:1.25;font-family:sans-serif;letter-spacing:0px;word-spacing:0px;fill:#000000;fill-opacity:1;stroke:none;stroke-width:1.60000002"
           x="134.83853"
           y="-34.105423"
           id="text1047"
           transform="scale(1,-1)"><tspan
             sodipodi:role="line"
             id="tspan1045"
             x="134.83853"
             y="-34.105423"
             style="font-style:normal;font-variant:normal;font-weight:normal;font-stretch:normal;font-size:4.26666689px;font-family:'Palatino Linotype';-inkscape-font-specification:'Palatino Linotype';stroke-width:1.60000002">Instituts fr Biomechanik und Orthopdie</tspan></text>
</g></g></g></svg>